<mxfile host="app.diagrams.net" modified="2021-10-07T17:22:26.300Z" agent="5.0 (Macintosh; Intel Mac OS X 10_15_7) AppleWebKit/537.36 (KHTML, like Gecko) Chrome/93.0.4577.82 Safari/537.36" etag="3gfm1Y1zYLZY94ksTEHV" version="15.3.5" type="github">
  <diagram id="bkccWslCO0jRq3OM-X9I" name="Page-1">
    <mxGraphModel dx="788" dy="538" grid="1" gridSize="10" guides="1" tooltips="1" connect="1" arrows="1" fold="1" page="1" pageScale="1" pageWidth="850" pageHeight="1100" math="0" shadow="0">
      <root>
        <mxCell id="0" />
        <mxCell id="1" parent="0" />
        <mxCell id="RAD0ITG-xZBbuQn9qpgh-1" value="Admin" style="shape=umlActor;verticalLabelPosition=bottom;verticalAlign=top;html=1;outlineConnect=0;hachureGap=4;pointerEvents=0;" vertex="1" parent="1">
          <mxGeometry x="610" y="240" width="30" height="60" as="geometry" />
        </mxCell>
        <mxCell id="RAD0ITG-xZBbuQn9qpgh-35" style="edgeStyle=none;curved=1;rounded=0;orthogonalLoop=1;jettySize=auto;html=1;endArrow=open;startSize=14;endSize=14;sourcePerimeterSpacing=8;targetPerimeterSpacing=8;entryX=0;entryY=0.5;entryDx=0;entryDy=0;" edge="1" parent="1" source="RAD0ITG-xZBbuQn9qpgh-2" target="RAD0ITG-xZBbuQn9qpgh-9">
          <mxGeometry relative="1" as="geometry" />
        </mxCell>
        <mxCell id="RAD0ITG-xZBbuQn9qpgh-2" value="Renter" style="shape=umlActor;verticalLabelPosition=bottom;verticalAlign=top;html=1;outlineConnect=0;hachureGap=4;pointerEvents=0;" vertex="1" parent="1">
          <mxGeometry x="120" y="160" width="30" height="60" as="geometry" />
        </mxCell>
        <mxCell id="RAD0ITG-xZBbuQn9qpgh-25" value="" style="edgeStyle=none;curved=1;rounded=0;orthogonalLoop=1;jettySize=auto;html=1;endArrow=open;startSize=14;endSize=14;sourcePerimeterSpacing=8;targetPerimeterSpacing=8;entryX=0.029;entryY=0.3;entryDx=0;entryDy=0;entryPerimeter=0;" edge="1" parent="1" target="RAD0ITG-xZBbuQn9qpgh-20">
          <mxGeometry relative="1" as="geometry">
            <mxPoint x="158" y="368" as="sourcePoint" />
            <mxPoint x="177" y="350" as="targetPoint" />
            <Array as="points" />
          </mxGeometry>
        </mxCell>
        <mxCell id="RAD0ITG-xZBbuQn9qpgh-30" style="edgeStyle=none;curved=1;rounded=0;orthogonalLoop=1;jettySize=auto;html=1;endArrow=open;startSize=14;endSize=14;sourcePerimeterSpacing=8;targetPerimeterSpacing=8;entryX=0;entryY=0.25;entryDx=0;entryDy=0;entryPerimeter=0;" edge="1" parent="1" target="RAD0ITG-xZBbuQn9qpgh-11">
          <mxGeometry relative="1" as="geometry">
            <mxPoint x="158" y="370" as="sourcePoint" />
          </mxGeometry>
        </mxCell>
        <mxCell id="RAD0ITG-xZBbuQn9qpgh-31" style="edgeStyle=none;curved=1;rounded=0;orthogonalLoop=1;jettySize=auto;html=1;endArrow=open;startSize=14;endSize=14;sourcePerimeterSpacing=8;targetPerimeterSpacing=8;entryX=0;entryY=0.5;entryDx=0;entryDy=0;" edge="1" parent="1" target="RAD0ITG-xZBbuQn9qpgh-29">
          <mxGeometry relative="1" as="geometry">
            <mxPoint x="158" y="370" as="sourcePoint" />
            <mxPoint x="340" y="345" as="targetPoint" />
          </mxGeometry>
        </mxCell>
        <mxCell id="RAD0ITG-xZBbuQn9qpgh-3" value="Owner" style="shape=umlActor;verticalLabelPosition=bottom;verticalAlign=top;html=1;outlineConnect=0;hachureGap=4;pointerEvents=0;" vertex="1" parent="1">
          <mxGeometry x="120" y="320" width="30" height="60" as="geometry" />
        </mxCell>
        <mxCell id="RAD0ITG-xZBbuQn9qpgh-15" value="" style="swimlane;startSize=0;hachureGap=4;pointerEvents=0;" vertex="1" parent="1">
          <mxGeometry x="210" y="60" width="350" height="540" as="geometry" />
        </mxCell>
        <mxCell id="RAD0ITG-xZBbuQn9qpgh-13" value="Request Tour" style="ellipse;whiteSpace=wrap;html=1;hachureGap=4;pointerEvents=0;" vertex="1" parent="RAD0ITG-xZBbuQn9qpgh-15">
          <mxGeometry x="70" y="40" width="70" height="40" as="geometry" />
        </mxCell>
        <mxCell id="RAD0ITG-xZBbuQn9qpgh-11" value="New Profile" style="ellipse;whiteSpace=wrap;html=1;hachureGap=4;pointerEvents=0;" vertex="1" parent="RAD0ITG-xZBbuQn9qpgh-15">
          <mxGeometry x="200" y="390" width="70" height="40" as="geometry" />
        </mxCell>
        <mxCell id="RAD0ITG-xZBbuQn9qpgh-9" value="Rent Property" style="ellipse;whiteSpace=wrap;html=1;hachureGap=4;pointerEvents=0;" vertex="1" parent="RAD0ITG-xZBbuQn9qpgh-15">
          <mxGeometry x="200" y="100" width="70" height="40" as="geometry" />
        </mxCell>
        <mxCell id="RAD0ITG-xZBbuQn9qpgh-10" value="Make Payment" style="ellipse;whiteSpace=wrap;html=1;hachureGap=4;pointerEvents=0;" vertex="1" parent="RAD0ITG-xZBbuQn9qpgh-15">
          <mxGeometry x="70" y="140" width="70" height="40" as="geometry" />
        </mxCell>
        <mxCell id="RAD0ITG-xZBbuQn9qpgh-32" style="edgeStyle=none;curved=1;rounded=0;orthogonalLoop=1;jettySize=auto;html=1;endArrow=open;startSize=14;endSize=14;sourcePerimeterSpacing=8;targetPerimeterSpacing=8;entryX=1;entryY=0.5;entryDx=0;entryDy=0;" edge="1" parent="RAD0ITG-xZBbuQn9qpgh-15" target="RAD0ITG-xZBbuQn9qpgh-17">
          <mxGeometry relative="1" as="geometry">
            <mxPoint x="390" y="220" as="sourcePoint" />
            <mxPoint x="390" y="220" as="targetPoint" />
          </mxGeometry>
        </mxCell>
        <mxCell id="RAD0ITG-xZBbuQn9qpgh-17" value="Delete a User" style="ellipse;whiteSpace=wrap;html=1;hachureGap=4;pointerEvents=0;" vertex="1" parent="RAD0ITG-xZBbuQn9qpgh-15">
          <mxGeometry x="200" y="190" width="70" height="40" as="geometry" />
        </mxCell>
        <mxCell id="RAD0ITG-xZBbuQn9qpgh-19" value="Delete A listing" style="ellipse;whiteSpace=wrap;html=1;hachureGap=4;pointerEvents=0;" vertex="1" parent="RAD0ITG-xZBbuQn9qpgh-15">
          <mxGeometry x="70" y="310" width="70" height="40" as="geometry" />
        </mxCell>
        <mxCell id="RAD0ITG-xZBbuQn9qpgh-20" value="Block Out dates" style="ellipse;whiteSpace=wrap;html=1;hachureGap=4;pointerEvents=0;" vertex="1" parent="RAD0ITG-xZBbuQn9qpgh-15">
          <mxGeometry x="70" y="390" width="70" height="40" as="geometry" />
        </mxCell>
        <mxCell id="RAD0ITG-xZBbuQn9qpgh-29" value="List Property" style="ellipse;whiteSpace=wrap;html=1;hachureGap=4;pointerEvents=0;" vertex="1" parent="RAD0ITG-xZBbuQn9qpgh-15">
          <mxGeometry x="70" y="230" width="70" height="40" as="geometry" />
        </mxCell>
        <mxCell id="RAD0ITG-xZBbuQn9qpgh-12" value="Cancel rental" style="ellipse;whiteSpace=wrap;html=1;hachureGap=4;pointerEvents=0;" vertex="1" parent="RAD0ITG-xZBbuQn9qpgh-15">
          <mxGeometry x="190" y="260" width="70" height="40" as="geometry" />
        </mxCell>
        <mxCell id="RAD0ITG-xZBbuQn9qpgh-26" value="" style="edgeStyle=none;curved=1;rounded=0;orthogonalLoop=1;jettySize=auto;html=1;endArrow=open;startSize=14;endSize=14;sourcePerimeterSpacing=8;targetPerimeterSpacing=8;entryX=0;entryY=0.5;entryDx=0;entryDy=0;" edge="1" parent="1" target="RAD0ITG-xZBbuQn9qpgh-19">
          <mxGeometry relative="1" as="geometry">
            <mxPoint x="160" y="370" as="sourcePoint" />
            <mxPoint x="292.03" y="472" as="targetPoint" />
          </mxGeometry>
        </mxCell>
        <mxCell id="RAD0ITG-xZBbuQn9qpgh-33" style="edgeStyle=none;curved=1;rounded=0;orthogonalLoop=1;jettySize=auto;html=1;endArrow=open;startSize=14;endSize=14;sourcePerimeterSpacing=8;targetPerimeterSpacing=8;entryX=1.029;entryY=0.325;entryDx=0;entryDy=0;entryPerimeter=0;" edge="1" parent="1" target="RAD0ITG-xZBbuQn9qpgh-12">
          <mxGeometry relative="1" as="geometry">
            <mxPoint x="600" y="280" as="sourcePoint" />
            <mxPoint x="490" y="280" as="targetPoint" />
          </mxGeometry>
        </mxCell>
        <mxCell id="RAD0ITG-xZBbuQn9qpgh-34" style="edgeStyle=none;curved=1;rounded=0;orthogonalLoop=1;jettySize=auto;html=1;endArrow=open;startSize=14;endSize=14;sourcePerimeterSpacing=8;targetPerimeterSpacing=8;entryX=1.043;entryY=0.35;entryDx=0;entryDy=0;entryPerimeter=0;" edge="1" parent="1" target="RAD0ITG-xZBbuQn9qpgh-11">
          <mxGeometry relative="1" as="geometry">
            <mxPoint x="600" y="280" as="sourcePoint" />
            <mxPoint x="500" y="290" as="targetPoint" />
          </mxGeometry>
        </mxCell>
        <mxCell id="RAD0ITG-xZBbuQn9qpgh-36" style="edgeStyle=none;curved=1;rounded=0;orthogonalLoop=1;jettySize=auto;html=1;endArrow=open;startSize=14;endSize=14;sourcePerimeterSpacing=8;targetPerimeterSpacing=8;entryX=0;entryY=0.5;entryDx=0;entryDy=0;" edge="1" parent="1" target="RAD0ITG-xZBbuQn9qpgh-10">
          <mxGeometry relative="1" as="geometry">
            <mxPoint x="160" y="190" as="sourcePoint" />
            <mxPoint x="420" y="190" as="targetPoint" />
          </mxGeometry>
        </mxCell>
        <mxCell id="RAD0ITG-xZBbuQn9qpgh-37" style="edgeStyle=none;curved=1;rounded=0;orthogonalLoop=1;jettySize=auto;html=1;endArrow=open;startSize=14;endSize=14;sourcePerimeterSpacing=8;targetPerimeterSpacing=8;entryX=0;entryY=0.5;entryDx=0;entryDy=0;" edge="1" parent="1" target="RAD0ITG-xZBbuQn9qpgh-13">
          <mxGeometry relative="1" as="geometry">
            <mxPoint x="160" y="190" as="sourcePoint" />
            <mxPoint x="430" y="200" as="targetPoint" />
          </mxGeometry>
        </mxCell>
        <mxCell id="RAD0ITG-xZBbuQn9qpgh-38" style="edgeStyle=none;curved=1;rounded=0;orthogonalLoop=1;jettySize=auto;html=1;endArrow=open;startSize=14;endSize=14;sourcePerimeterSpacing=8;targetPerimeterSpacing=8;entryX=0.064;entryY=0.154;entryDx=0;entryDy=0;entryPerimeter=0;" edge="1" parent="1" target="RAD0ITG-xZBbuQn9qpgh-12">
          <mxGeometry relative="1" as="geometry">
            <mxPoint x="160" y="190" as="sourcePoint" />
            <mxPoint x="440" y="210" as="targetPoint" />
          </mxGeometry>
        </mxCell>
        <mxCell id="RAD0ITG-xZBbuQn9qpgh-39" style="edgeStyle=none;curved=1;rounded=0;orthogonalLoop=1;jettySize=auto;html=1;endArrow=open;startSize=14;endSize=14;sourcePerimeterSpacing=8;targetPerimeterSpacing=8;entryX=0;entryY=0.5;entryDx=0;entryDy=0;" edge="1" parent="1" target="RAD0ITG-xZBbuQn9qpgh-12">
          <mxGeometry relative="1" as="geometry">
            <mxPoint x="160" y="370" as="sourcePoint" />
            <mxPoint x="450" y="220" as="targetPoint" />
          </mxGeometry>
        </mxCell>
      </root>
    </mxGraphModel>
  </diagram>
</mxfile>
